<svg width="20" height="20" viewBox="0 0 20 20" fill="none" xmlns="http://www.w3.org/2000/svg">
<path d="M17.7778 0H2.22222C0.994444 0 0 0.994444 0 2.22222V17.7778C0 19.0056 0.994444 20 2.22222 20H10.69V12.2656H8.08667V9.23778H10.69V7.01C10.69 4.42778 12.2689 3.02 14.5733 3.02C15.35 3.01778 16.1256 3.05778 16.8978 3.13667V5.83667H15.3111C14.0556 5.83667 13.8111 6.43 13.8111 7.30555V9.23333H16.8111L16.4211 12.2611H13.7933V20H17.7778C19.0056 20 20 19.0056 20 17.7778V2.22222C20 0.994444 19.0056 0 17.7778 0Z" fill="#434BE7"/>
</svg>
