<svg width="20" height="20" viewBox="0 0 20 20" fill="none" xmlns="http://www.w3.org/2000/svg">
<path d="M17.7778 0H2.22222C0.994444 0 0 0.994444 0 2.22222V17.7778C0 19.0056 0.994444 20 2.22222 20H17.7778C19.0056 20 20 19.0056 20 17.7778V2.22222C20 0.994444 19.0056 0 17.7778 0ZM15.6111 7.23778C15.6111 7.33333 15.6111 7.42778 15.6111 7.61889C15.6111 11.2378 12.8489 15.4289 7.80111 15.4289C6.27778 15.4289 4.84889 14.9522 3.61111 14.1911C3.80111 14.1911 4.08778 14.1911 4.27778 14.1911C5.51556 14.1911 6.75444 13.7144 7.70667 13.0478C6.46889 13.0478 5.51667 12.1911 5.13556 11.1433C5.32556 11.1433 5.51667 11.2389 5.61222 11.2389C5.89778 11.2389 6.08889 11.2389 6.37445 11.1433C5.13667 10.8578 4.18444 9.81 4.18444 8.47667C4.56556 8.66667 4.94667 8.76222 5.42222 8.85778C4.66 8.19111 4.18444 7.42889 4.18444 6.47667C4.18444 6 4.28 5.52445 4.56556 5.14333C5.89889 6.76222 7.89889 7.90556 10.1844 8C10.1844 7.81 10.0889 7.61889 10.0889 7.33333C10.0889 5.81 11.3267 4.57111 12.8511 4.57111C13.6133 4.57111 14.3744 4.85667 14.8511 5.42778C15.5178 5.33222 16.0889 5.04667 16.5656 4.76111C16.3756 5.42778 15.8989 5.90444 15.3278 6.28444C15.8989 6.18889 16.3756 6.09444 16.9467 5.80778C16.5633 6.38111 16.0878 6.85667 15.6111 7.23778Z" fill="#434BE7"/>
</svg>
