<svg width="20" height="20" viewBox="0 0 20 20" fill="none" xmlns="http://www.w3.org/2000/svg">
<path d="M19.582 2.7325C19.352 1.6575 18.674 0.81 17.814 0.5225C16.254 2.38419e-07 10 0 10 0C10 0 3.746 2.38419e-07 2.186 0.5225C1.326 0.81 0.648 1.6575 0.418 2.7325C-3.55849e-08 4.6825 0 10 0 10C0 10 -3.55849e-08 15.3175 0.418 17.2675C0.648 18.3425 1.326 19.19 2.186 19.4775C3.746 20 10 20 10 20C10 20 16.254 20 17.814 19.4775C18.675 19.19 19.352 18.3425 19.582 17.2675C20 15.3175 20 10 20 10C20 10 20 4.6825 19.582 2.7325ZM8 14.33V5.67L14 10L8 14.33Z" fill="#434BE7"/>
</svg>
